<mxfile host="app.diagrams.net" modified="2024-04-17T04:40:23.788Z" agent="Mozilla/5.0 (Macintosh; Intel Mac OS X 10_15_7) AppleWebKit/537.36 (KHTML, like Gecko) Chrome/123.0.0.0 Safari/537.36" etag="AHxcnPsuGPIWiZwdT10V" version="24.2.5" type="github">
  <diagram id="C5RBs43oDa-KdzZeNtuy" name="Page-1">
    <mxGraphModel dx="1283" dy="856" grid="1" gridSize="10" guides="1" tooltips="1" connect="1" arrows="1" fold="1" page="1" pageScale="1" pageWidth="827" pageHeight="1169" math="0" shadow="0">
      <root>
        <mxCell id="WIyWlLk6GJQsqaUBKTNV-0" />
        <mxCell id="WIyWlLk6GJQsqaUBKTNV-1" parent="WIyWlLk6GJQsqaUBKTNV-0" />
        <mxCell id="1jQR7npiqTHlVtGa1N53-4" value="&lt;font style=&quot;font-size: 12px;&quot;&gt;关键词1&lt;/font&gt;" style="edgeStyle=orthogonalEdgeStyle;rounded=0;orthogonalLoop=1;jettySize=auto;html=1;exitX=0.25;exitY=1;exitDx=0;exitDy=0;entryX=0.25;entryY=0;entryDx=0;entryDy=0;" edge="1" parent="WIyWlLk6GJQsqaUBKTNV-1" source="1jQR7npiqTHlVtGa1N53-1" target="1jQR7npiqTHlVtGa1N53-5">
          <mxGeometry relative="1" as="geometry">
            <mxPoint x="290" y="290" as="targetPoint" />
          </mxGeometry>
        </mxCell>
        <mxCell id="1jQR7npiqTHlVtGa1N53-6" value="&lt;font style=&quot;font-size: 12px;&quot;&gt;关键词2&lt;/font&gt;" style="edgeStyle=orthogonalEdgeStyle;rounded=0;orthogonalLoop=1;jettySize=auto;html=1;" edge="1" parent="WIyWlLk6GJQsqaUBKTNV-1" source="1jQR7npiqTHlVtGa1N53-1" target="1jQR7npiqTHlVtGa1N53-5">
          <mxGeometry relative="1" as="geometry" />
        </mxCell>
        <mxCell id="1jQR7npiqTHlVtGa1N53-7" style="edgeStyle=orthogonalEdgeStyle;rounded=0;orthogonalLoop=1;jettySize=auto;html=1;exitX=0.75;exitY=1;exitDx=0;exitDy=0;entryX=0.75;entryY=0;entryDx=0;entryDy=0;" edge="1" parent="WIyWlLk6GJQsqaUBKTNV-1" source="1jQR7npiqTHlVtGa1N53-1" target="1jQR7npiqTHlVtGa1N53-5">
          <mxGeometry relative="1" as="geometry" />
        </mxCell>
        <mxCell id="1jQR7npiqTHlVtGa1N53-8" value="&lt;font style=&quot;font-size: 12px;&quot;&gt;关键词3&lt;/font&gt;" style="edgeLabel;html=1;align=center;verticalAlign=middle;resizable=0;points=[];" vertex="1" connectable="0" parent="1jQR7npiqTHlVtGa1N53-7">
          <mxGeometry relative="1" as="geometry">
            <mxPoint as="offset" />
          </mxGeometry>
        </mxCell>
        <mxCell id="1jQR7npiqTHlVtGa1N53-1" value="&lt;font style=&quot;font-size: 16px;&quot;&gt;图像关键词识别&lt;/font&gt;" style="rounded=1;whiteSpace=wrap;html=1;fillColor=#b0e3e6;strokeColor=#0e8088;" vertex="1" parent="WIyWlLk6GJQsqaUBKTNV-1">
          <mxGeometry x="246.25" y="170" width="187.5" height="60" as="geometry" />
        </mxCell>
        <mxCell id="1jQR7npiqTHlVtGa1N53-18" value="" style="edgeStyle=orthogonalEdgeStyle;rounded=0;orthogonalLoop=1;jettySize=auto;html=1;" edge="1" parent="WIyWlLk6GJQsqaUBKTNV-1" source="1jQR7npiqTHlVtGa1N53-5" target="1jQR7npiqTHlVtGa1N53-17">
          <mxGeometry relative="1" as="geometry" />
        </mxCell>
        <mxCell id="1jQR7npiqTHlVtGa1N53-28" value="&lt;font style=&quot;font-size: 14px;&quot;&gt;四字成语&lt;/font&gt;" style="edgeLabel;html=1;align=center;verticalAlign=middle;resizable=0;points=[];" vertex="1" connectable="0" parent="1jQR7npiqTHlVtGa1N53-18">
          <mxGeometry x="0.002" y="-1" relative="1" as="geometry">
            <mxPoint as="offset" />
          </mxGeometry>
        </mxCell>
        <mxCell id="1jQR7npiqTHlVtGa1N53-5" value="&lt;font style=&quot;font-size: 16px;&quot;&gt;成语映射&lt;/font&gt;" style="rounded=1;whiteSpace=wrap;html=1;fillColor=#d0cee2;strokeColor=#56517e;" vertex="1" parent="WIyWlLk6GJQsqaUBKTNV-1">
          <mxGeometry x="246.25" y="310" width="187.5" height="60" as="geometry" />
        </mxCell>
        <mxCell id="1jQR7npiqTHlVtGa1N53-20" value="" style="edgeStyle=orthogonalEdgeStyle;rounded=0;orthogonalLoop=1;jettySize=auto;html=1;strokeWidth=1;" edge="1" parent="WIyWlLk6GJQsqaUBKTNV-1" source="1jQR7npiqTHlVtGa1N53-17" target="1jQR7npiqTHlVtGa1N53-19">
          <mxGeometry relative="1" as="geometry" />
        </mxCell>
        <mxCell id="1jQR7npiqTHlVtGa1N53-21" value="&lt;font style=&quot;font-size: 14px;&quot;&gt;各个位置概率前k的词语&lt;/font&gt;" style="edgeLabel;html=1;align=center;verticalAlign=middle;resizable=0;points=[];" vertex="1" connectable="0" parent="1jQR7npiqTHlVtGa1N53-20">
          <mxGeometry x="-0.05" y="-1" relative="1" as="geometry">
            <mxPoint as="offset" />
          </mxGeometry>
        </mxCell>
        <mxCell id="1jQR7npiqTHlVtGa1N53-17" value="&lt;font style=&quot;font-size: 16px;&quot;&gt;Bert模型预测输出&lt;/font&gt;" style="whiteSpace=wrap;html=1;rounded=1;fillColor=#fad7ac;strokeColor=#b46504;" vertex="1" parent="WIyWlLk6GJQsqaUBKTNV-1">
          <mxGeometry x="260" y="420" width="160" height="100" as="geometry" />
        </mxCell>
        <mxCell id="1jQR7npiqTHlVtGa1N53-30" style="edgeStyle=orthogonalEdgeStyle;rounded=0;orthogonalLoop=1;jettySize=auto;html=1;entryX=0.5;entryY=0;entryDx=0;entryDy=0;" edge="1" parent="WIyWlLk6GJQsqaUBKTNV-1" source="1jQR7npiqTHlVtGa1N53-19" target="1jQR7npiqTHlVtGa1N53-29">
          <mxGeometry relative="1" as="geometry" />
        </mxCell>
        <mxCell id="1jQR7npiqTHlVtGa1N53-19" value="&lt;font style=&quot;font-size: 16px;&quot;&gt;根据韵律平仄选择&lt;/font&gt;" style="whiteSpace=wrap;html=1;rounded=1;fillColor=#bac8d3;strokeColor=#23445d;" vertex="1" parent="WIyWlLk6GJQsqaUBKTNV-1">
          <mxGeometry x="270" y="585" width="140" height="70" as="geometry" />
        </mxCell>
        <mxCell id="1jQR7npiqTHlVtGa1N53-23" style="edgeStyle=orthogonalEdgeStyle;rounded=0;orthogonalLoop=1;jettySize=auto;html=1;entryX=0;entryY=0.5;entryDx=0;entryDy=0;shape=flexArrow;" edge="1" parent="WIyWlLk6GJQsqaUBKTNV-1" source="1jQR7npiqTHlVtGa1N53-22" target="1jQR7npiqTHlVtGa1N53-19">
          <mxGeometry relative="1" as="geometry" />
        </mxCell>
        <mxCell id="1jQR7npiqTHlVtGa1N53-22" value="&lt;font style=&quot;font-size: 16px;&quot;&gt;韵律平仄规则&lt;/font&gt;" style="rounded=1;whiteSpace=wrap;html=1;fillColor=#dae8fc;strokeColor=#6c8ebf;" vertex="1" parent="WIyWlLk6GJQsqaUBKTNV-1">
          <mxGeometry x="70" y="590" width="120" height="60" as="geometry" />
        </mxCell>
        <mxCell id="1jQR7npiqTHlVtGa1N53-25" style="edgeStyle=orthogonalEdgeStyle;rounded=0;orthogonalLoop=1;jettySize=auto;html=1;entryX=0;entryY=0.5;entryDx=0;entryDy=0;shape=flexArrow;" edge="1" parent="WIyWlLk6GJQsqaUBKTNV-1" source="1jQR7npiqTHlVtGa1N53-24" target="1jQR7npiqTHlVtGa1N53-17">
          <mxGeometry relative="1" as="geometry" />
        </mxCell>
        <mxCell id="1jQR7npiqTHlVtGa1N53-24" value="&lt;font style=&quot;font-size: 16px;&quot;&gt;现代词库&lt;/font&gt;" style="rounded=1;whiteSpace=wrap;html=1;fillColor=#dae8fc;strokeColor=#6c8ebf;" vertex="1" parent="WIyWlLk6GJQsqaUBKTNV-1">
          <mxGeometry x="70" y="440" width="120" height="60" as="geometry" />
        </mxCell>
        <mxCell id="1jQR7npiqTHlVtGa1N53-27" style="edgeStyle=orthogonalEdgeStyle;rounded=0;orthogonalLoop=1;jettySize=auto;html=1;exitX=1;exitY=0.5;exitDx=0;exitDy=0;entryX=0;entryY=0.5;entryDx=0;entryDy=0;shape=flexArrow;" edge="1" parent="WIyWlLk6GJQsqaUBKTNV-1" source="1jQR7npiqTHlVtGa1N53-26" target="1jQR7npiqTHlVtGa1N53-5">
          <mxGeometry relative="1" as="geometry" />
        </mxCell>
        <mxCell id="1jQR7npiqTHlVtGa1N53-26" value="&lt;font style=&quot;font-size: 16px;&quot;&gt;成语词库&lt;/font&gt;" style="rounded=1;whiteSpace=wrap;html=1;fillColor=#dae8fc;strokeColor=#6c8ebf;" vertex="1" parent="WIyWlLk6GJQsqaUBKTNV-1">
          <mxGeometry x="70" y="310" width="120" height="60" as="geometry" />
        </mxCell>
        <mxCell id="1jQR7npiqTHlVtGa1N53-29" value="&lt;font style=&quot;font-size: 16px;&quot;&gt;输出藏头诗&lt;/font&gt;" style="rounded=1;whiteSpace=wrap;html=1;fillColor=#d5e8d4;strokeColor=#82b366;" vertex="1" parent="WIyWlLk6GJQsqaUBKTNV-1">
          <mxGeometry x="280" y="700" width="120" height="60" as="geometry" />
        </mxCell>
        <mxCell id="1jQR7npiqTHlVtGa1N53-34" style="edgeStyle=orthogonalEdgeStyle;rounded=0;orthogonalLoop=1;jettySize=auto;html=1;entryX=0.5;entryY=0;entryDx=0;entryDy=0;shape=flexArrow;" edge="1" parent="WIyWlLk6GJQsqaUBKTNV-1" source="1jQR7npiqTHlVtGa1N53-31" target="1jQR7npiqTHlVtGa1N53-1">
          <mxGeometry relative="1" as="geometry" />
        </mxCell>
        <mxCell id="1jQR7npiqTHlVtGa1N53-31" value="&lt;font style=&quot;font-size: 16px;&quot;&gt;输入图片&lt;/font&gt;" style="rounded=1;whiteSpace=wrap;html=1;fillColor=#f5f5f5;fontColor=#333333;strokeColor=#666666;" vertex="1" parent="WIyWlLk6GJQsqaUBKTNV-1">
          <mxGeometry x="280" y="60" width="120" height="60" as="geometry" />
        </mxCell>
      </root>
    </mxGraphModel>
  </diagram>
</mxfile>
